<?xml version="1.0" standalone="no"?>
<!DOCTYPE svg PUBLIC "-//W3C//DTD SVG 20010904//EN"
 "http://www.w3.org/TR/2001/REC-SVG-20010904/DTD/svg10.dtd">
<svg version="1.0" xmlns="http://www.w3.org/2000/svg"
 width="830.000000pt" height="830.000000pt" viewBox="0 0 830.000000 830.000000"
 preserveAspectRatio="xMidYMid meet">
<metadata>
Created by potrace 1.11, written by Peter Selinger 2001-2013
</metadata>
<g transform="translate(0.000000,830.000000) scale(0.100000,-0.100000)"
fill="#000000" stroke="none">
<path d="M2559 6176 c-103 -27 -199 -111 -247 -214 -26 -56 -27 -61 -27 -262
l0 -205 31 -60 c39 -74 116 -148 192 -183 47 -22 77 -27 172 -32 63 -4 -197
-7 -577 -8 l-693 -2 0 -102 0 -103 2493 0 2492 0 57 -23 c81 -33 160 -108 200
-190 l33 -67 3 -201 c4 -236 -6 -296 -66 -384 -20 -30 -62 -71 -92 -92 -105
-74 118 -68 -2637 -68 l-2483 0 0 -100 0 -100 -215 0 -215 0 0 -650 0 -650 63
-1 62 0 -90 -19 c-113 -24 -246 -89 -338 -165 -112 -93 -199 -228 -249 -385
-22 -72 -23 -87 -23 -410 0 -323 1 -338 23 -410 86 -274 287 -470 557 -541 67
-18 119 -22 317 -26 l237 -5 3 -151 3 -150 162 121 161 121 159 -119 158 -119
6 147 c4 81 7 148 8 150 0 1 1284 2 2851 2 l2850 0 0 140 0 140 -2852 0 -2853
0 -2 348 -2 347 -326 3 -325 2 -2 -350 -3 -351 -223 0 c-132 0 -240 5 -265 12
-174 46 -329 210 -366 387 -14 70 -14 534 0 604 37 178 188 338 363 384 42 11
617 14 3454 14 l3402 0 0 140 0 140 -290 0 -290 0 0 650 0 651 -466 -3 c-397
-3 -459 -1 -418 10 226 60 384 214 439 427 21 83 21 463 0 554 -37 155 -156
306 -296 375 -141 69 -39 65 -1849 68 l-1635 3 1465 2 1465 3 -3 65 -4 65
-1464 0 -1464 0 0 195 0 196 -147 -3 -148 -3 -3 -192 -2 -193 -84 0 c-137 0
-221 44 -270 142 -25 49 -26 60 -26 210 0 170 6 198 54 261 14 19 50 47 78 63
l53 29 1715 3 1715 2 -3 65 -4 65 -1706 -1 c-1319 0 -1717 -3 -1753 -13z m419
-963 c-15 -2 -42 -2 -60 0 -18 2 -6 4 27 4 33 0 48 -2 33 -4z m4025 -1549 c15
-14 29 -40 32 -58 3 -17 5 -246 3 -509 l-3 -479 -33 -29 -32 -29 -738 0 c-683
0 -739 2 -758 18 -44 35 -44 40 -44 547 0 516 1 527 47 554 12 7 274 10 759
11 l741 0 26 -26z"/>
<path d="M4007 4683 c94 -2 252 -2 350 0 98 1 21 2 -172 2 -192 1 -273 -1
-178 -2z"/>
</g>
</svg>
